# xmcd CD database file
#
# Track frame offsets:
#	150
#	14255
#	29847
#	49052
#	64985
#	80155
#	106200
#	123795
#	142440
#	169765
#	198775
#	221027
#	240767
#	251692
#	271190
#
# Disc length: 3869 seconds
#
# Revision: 0
# Processed by: cddbd v1.5.1PL0 Copyright (c) Steve Scherf et al.
# Submitted via: CDex 1.51
#
DISCID=d90f1b0f
DTITLE=Yamashita Yosuke - MONA LISA
DYEAR=1997
DGENRE=Jazz
TTITLE0=MONA LISA
TTITLE1=WALKING SHOES
TTITLE2=SOME OTHER SPRING
TTITLE3=IF YOU COULD SEE ME NOW
TTITLE4=ALL OF ME
TTITLE5=YOU DON'T KNOW WHAT LOVE IS
TTITLE6=I REMEMBER YOU
TTITLE7=MY BLUE HEAVEN
TTITLE8=SOUTH OF THE BORDER
TTITLE9=I'M A FOOL TO WANT YOU
TTITLE10=IN A SENTIMENTAL MOOD
TTITLE11=LINE FOR LYONS
TTITLE12=TEA FOR TWO
TTITLE13=SMOKE GETS IN YOUR EYES
TTITLE14=WHAT IS THIS THING CALLED LOVE?
EXTD=YEAR: 1997
EXTT0=
EXTT1=
EXTT2=
EXTT3=
EXTT4=
EXTT5=
EXTT6=
EXTT7=
EXTT8=
EXTT9=
EXTT10=
EXTT11=
EXTT12=
EXTT13=
EXTT14=
PLAYORDER=
